<svg xmlns="http://www.w3.org/2000/svg" viewBox="0 0 512 512"><rect width="512" height="512" rx="112" fill="#426b67"/><path d="M126 122h260c39 0 70 31 70 70v126c0 39-31 70-70 70H274l-62 52 10-52h-96c-39 0-70-31-70-70V192c0-39 31-70 70-70z" fill="#fff"/><rect x="135" y="181" width="242" height="151" rx="66" fill="#426b67"/><circle cx="208" cy="248" r="15" fill="#e9f4ee"/><circle cx="304" cy="248" r="15" fill="#e9f4ee"/><path d="M205 286c28 31 74 31 102 0" fill="none" stroke="#e9f4ee" stroke-width="15" stroke-linecap="round"/><path d="M256 122V91" stroke="#fff" stroke-width="14" stroke-linecap="round"/><circle cx="256" cy="73" r="21" fill="#bfe3c8"/><circle cx="397" cy="142" r="48" fill="#e9f4ee"/><path d="M375 141c0-18 22-26 32-10 10-16 32-8 32 10 0 19-32 38-32 38s-32-19-32-38z" fill="#426b67"/></svg>